PathFileType	4	(X/Y/Z)	Kaydara																																																																																																																									
DataRate	CameraRate	NumFrames	NumMarkers	Units	OrigDataRate	OrigDataStartFrame	OrigNumFrames																																																																																																																					
30	30	4	41	mm	30	1	128																																																																																																																					
Frame#	Time	EMLA_LFHD			EMLA_RFHD			EMLA_LBHD			EMLA_RBHD			EMLA_LFTShould			EMLA_RFTShould			EMLA_LRRShould			EMLA_RRRShould			EMLA_T10			EMLA_STRN			EMLA_TRUN			EMLA_LSHO			EMLA_LUPA			EMLA_LELB			EMLA_LFRM			EMLA_LWRA			EMLA_LWRB			EMLA_LFIN			EMLA_RSHO			EMLA_RUPA			EMLA_RELB			EMLA_RFRM			EMLA_RWRA			EMLA_RWRB			EMLA_RFIN			EMLA_LFWT			EMLA_RFWT			EMLA_LBWT			EMLA_RBWT			EMLA_LTHI			EMLA_LKNE			EMLA_LSHN			EMLA_LANK			EMLA_LHEE			EMLA_LTOE			EMLA_RTHI			EMLA_RKNE			EMLA_RSHN			EMLA_RANK			EMLA_RHEE			EMLA_RTOE		
		X1	Y1	Z1	X2	Y2	Z2	X3	Y3	Z3	X4	Y4	Z4	X5	Y5	Z5	X6	Y6	Z6	X7	Y7	Z7	X8	Y8	Z8	X9	Y9	Z9	X10	Y10	Z10	X11	Y11	Z11	X12	Y12	Z12	X13	Y13	Z13	X14	Y14	Z14	X15	Y15	Z15	X16	Y16	Z16	X17	Y17	Z17	X18	Y18	Z18	X19	Y19	Z19	X20	Y20	Z20	X21	Y21	Z21	X22	Y22	Z22	X23	Y23	Z23	X24	Y24	Z24	X25	Y25	Z25	X26	Y26	Z26	X27	Y27	Z27	X28	Y28	Z28	X29	Y29	Z29	X30	Y30	Z30	X31	Y31	Z31	X32	Y32	Z32	X33	Y33	Z33	X34	Y34	Z34	X35	Y35	Z35	X36	Y36	Z36	X37	Y37	Z37	X38	Y38	Z38	X39	Y39	Z39	X40	Y40	Z40	X41	Y41	Z41
																																																																																																																												
1	0.01	262.52895	1645.94864	-1943.7381	90.95585	1640.87738	-1938.07663	271.36921	1620.383	-2091.35788	76.60451	1618.05252	-2088.85284	263.64288	1403.76678	-1984.70642	112.91875	1392.77527	-1976.5686	247.67412	1449.68094	-2133.36182	92.83226	1438.45474	-2123.70163	183.01525	1271.9059	-2173.07816	190.39915	1333.48511	-1941.59042	187.64387	1230.5455	-1918.96744	385.1815	1427.48322	-2046.48026	445.7687	1247.70676	-2069.35547	470.85636	1107.30362	-2075.01465	476.97731	971.0701	-2066.07574	406.86131	827.34261	-1974.39117	457.45018	807.51099	-2039.13605	459.6172	776.996	-1975.92072	-13.13576	1420.73044	-2037.83813	-67.96757	1225.26489	-2030.05783	-83.64588	1081.48621	-2041.42929	-83.25135	979.28589	-2037.34482	-10.29062	831.00044	-1921.82693	-57.1189	797.41844	-1989.85992	-67.86691	778.69774	-1928.23975	290.12589	991.71303	-1941.64429	54.28531	978.81874	-1957.49649	270.52662	1014.50066	-2140.45258	94.96603	1015.79842	-2137.939	316.66391	729.3251	-2132.76733	325.28194	524.34181	-2097.36053	301.99703	341.55067	-2093.16116	305.22182	166.86571	-2171.19461	239.93557	86.36185	-2230.84183	276.69073	74.31385	-2033.53119	67.71341	715.89645	-2156.09467	32.36125	511.96861	-2102.39792	74.71658	290.48615	-2098.91403	39.61024	130.87072	-2181.2529	96.84336	78.66339	-2233.10379	58.21407	71.7689	-2032.84607
2	0.043	263.85309	1645.76187	-1943.10944	92.51286	1640.97504	-1937.65762	272.90279	1620.33646	-2090.96481	78.15446	1618.15475	-2088.34747	265.19346	1403.67218	-1984.61075	114.37694	1392.84744	-1976.02127	248.71901	1449.41986	-2132.88956	93.85337	1438.50784	-2123.03482	183.67941	1271.91681	-2172.75177	191.82175	1333.48831	-1941.28403	189.18982	1230.7132	-1918.52798	386.47373	1427.37808	-2046.89301	447.07817	1247.66975	-2070.24582	472.33414	1107.36465	-2076.08414	478.64288	971.17043	-2067.06985	408.92815	827.66487	-1974.43985	459.05502	807.61696	-2039.40323	461.73065	777.26067	-1976.36703	-11.83205	1420.94696	-2036.78421	-66.8283	1225.45593	-2028.57498	-82.70206	1081.66748	-2039.51431	-82.40061	979.51653	-2035.25421	-8.97708	831.36787	-1919.76685	-54.78924	799.01863	-1985.04654	-66.72516	779.14337	-1925.7785	291.69289	991.55312	-1941.78772	55.32521	978.62938	-1957.27921	271.54562	1014.47769	-2140.44357	95.96467	1015.79613	-2137.71347	317.68955	729.2952	-2132.93884	325.92144	524.22756	-2097.4263	302.40215	341.47629	-2093.20786	305.45803	166.80681	-2171.21063	240.06351	86.34155	-2230.83267	276.75095	74.31124	-2033.52249	68.46507	715.7653	-2155.80551	32.95554	511.93695	-2102.21848	75.02319	290.45418	-2098.8118	39.70115	130.91231	-2181.1499	96.89767	78.66389	-2233.06686	58.23501	71.74944	-2032.86697
3	0.077	263.86995	1645.18631	-1941.4296	93.96583	1641.00372	-1937.15027	274.35476	1620.28503	-2090.51971	79.60228	1618.22327	-2087.85172	266.61694	1403.75549	-1984.5459	115.98636	1392.90482	-1975.3688	249.73175	1449.56497	-2132.91992	94.90505	1438.62198	-2122.3085	184.49276	1271.97968	-2172.39944	193.41616	1333.52859	-1940.81696	190.83496	1230.68771	-1918.04382	387.72697	1427.37579	-2047.11182	448.4774	1247.72552	-2070.79468	473.98693	1107.50694	-2076.8956	480.01987	971.08353	-2067.29752	410.76244	828.01277	-1974.02557	460.40154	807.77519	-2039.1626	463.30879	777.55234	-1976.13571	-10.46893	1421.08215	-2035.68314	-65.52627	1225.61867	-2026.91681	-81.6831	1081.88423	-2037.66083	-81.42842	979.71527	-2033.32016	-8.02922	831.56075	-1917.9718	-55.26575	802.30324	-1982.91122	-65.75697	779.37668	-1923.82553	292.73825	991.48483	-1941.72455	56.57965	978.66005	-1956.89407	272.47431	1014.56627	-2140.42358	96.86762	1015.93063	-2137.42554	318.46062	729.32152	-2133.10959	326.53774	524.19258	-2097.47162	302.79928	341.44962	-2093.24905	305.5649	166.75936	-2171.23886	240.06422	86.39219	-2230.80811	276.77868	74.28957	-2033.5556	69.08094	715.80971	-2155.61081	33.5308	512.00592	-2102.14569	75.34646	290.45607	-2098.82889	39.79736	131.00429	-2181.17111	96.9294	78.71823	-2233.0719	58.22538	71.77877	-2032.82806
4	0.11	265.34821	1645.09155	-1940.81345	95.66592	1641.00845	-1936.45401	275.78863	1620.20294	-2089.98688	81.05102	1618.25348	-2087.17529	267.95065	1403.61862	-1984.20135	117.65877	1393.18024	-1974.51431	250.75638	1449.64645	-2132.65701	96.00236	1438.70316	-2121.60736	185.38393	1272.06909	-2172.00317	194.9835	1333.63983	-1940.32089	192.31548	1230.77354	-1917.48444	389.01409	1427.29736	-2047.04926	449.88583	1247.7771	-2070.96466	475.41504	1107.52098	-2076.9075	481.34594	971.05721	-2067.09198	411.91307	828.34297	-1973.22601	461.43532	807.91458	-2038.28369	464.27254	777.77328	-1974.9791	-9.1086	1421.16379	-2034.62662	-64.30403	1225.75027	-2025.45578	-80.47458	1082.07703	-2035.89737	-80.46787	980.12985	-2031.69373	-7.06844	831.53397	-1916.44775	-55.41173	804.74998	-1981.46103	-64.91641	779.48769	-1922.22931	293.6414	991.3739	-1941.53885	57.7538	978.54042	-1956.56433	273.39573	1014.60709	-2140.36789	97.8121	1016.08574	-2137.06146	319.24023	729.29054	-2133.15704	327.18761	524.08276	-2097.38312	303.2251	341.32263	-2093.15063	305.75846	166.68104	-2171.19705	240.13317	86.4308	-2230.83786	276.75568	74.28252	-2033.52005	69.89289	715.83427	-2155.44357	34.14252	512.01393	-2102.03369	75.6463	290.40579	-2098.75854	39.87441	131.03726	-2181.12259	96.97367	78.71368	-2233.07892	58.26483	71.76578	-2032.83493
